<?xml version="1.0" encoding="UTF-8"?>
<svg id="Calque_9" data-name="Calque 9" xmlns="http://www.w3.org/2000/svg" viewBox="0 0 116 116">
  <defs>
    <style>
      .cls-1 {
        stroke-width: 0px;
      }
    </style>
  </defs>
  <path class="cls-1" d="m48.06,41.51c-1.46,1.87-3.14,3.55-5.01,5.02-1.68-4.89-4.47-9.49-8.36-13.39,3.89,3.9,8.48,6.7,13.37,8.37Z"/>
  <path class="cls-1" d="m48.07,74.48c-4.89,1.67-9.48,4.47-13.38,8.37,3.9-3.9,6.69-8.5,8.36-13.39.94.73,1.83,1.52,2.67,2.36.84.85,1.63,1.74,2.35,2.66Z"/>
  <path class="cls-1" d="m84.39,33.14c-3.89,3.9-6.69,8.49-8.36,13.38-.93-.72-1.82-1.51-2.67-2.36-.84-.85-1.63-1.73-2.34-2.66,4.89-1.67,9.48-4.46,13.37-8.36Z"/>
  <path class="cls-1" d="m94.68,58c-7.44,0-14.34,2.31-20.02,6.25-1.73,1.19-3.35,2.55-4.83,4.03-1.49,1.49-2.85,3.11-4.03,4.84-3.95,5.67-6.26,12.57-6.26,20.02,0-7.45-2.31-14.35-6.26-20.02-1.18-1.73-2.54-3.35-4.03-4.84s-3.11-2.84-4.85-4.04c-5.67-3.94-12.57-6.24-20-6.24,7.43,0,14.33-2.3,20-6.25,3.47-2.4,6.48-5.41,8.87-8.88,3.96-5.67,6.27-12.57,6.27-20.02,0,7.45,2.31,14.35,6.27,20.02,1.19,1.74,2.53,3.34,4.02,4.83,1.48,1.48,3.1,2.84,4.83,4.04,5.68,3.94,12.58,6.26,20.02,6.26Z"/>
  <path class="cls-1" d="m94.68,58c-7.44,0-14.34,2.31-20.02,6.25-1.73,1.19-3.35,2.55-4.83,4.03-1.49,1.49-2.85,3.11-4.03,4.84-3.95,5.67-6.26,12.57-6.26,20.02,0-7.45-2.31-14.35-6.26-20.02-1.18-1.73-2.54-3.35-4.03-4.84s-3.11-2.84-4.85-4.04c-5.67-3.94-12.57-6.24-20-6.24,7.43,0,14.33-2.3,20-6.25,3.47-2.4,6.48-5.41,8.87-8.88,3.96-5.67,6.27-12.57,6.27-20.02,0,7.45,2.31,14.35,6.27,20.02,1.19,1.74,2.53,3.34,4.02,4.83,1.48,1.48,3.1,2.84,4.83,4.04,5.68,3.94,12.58,6.26,20.02,6.26Z"/>
  <path class="cls-1" d="m84.39,82.86c-3.9-3.9-8.48-6.7-13.38-8.37.72-.92,1.51-1.81,2.35-2.66.85-.85,1.74-1.64,2.67-2.36,1.67,4.89,4.46,9.48,8.36,13.39Z"/>
</svg>