<?xml version="1.0" encoding="UTF-8"?>
<svg id="Calque_8" xmlns="http://www.w3.org/2000/svg" viewBox="0 0 152.68 97.88">
  <defs>
    <style>
      .cls-1 {
        font-family: BuffonPro-Regular, 'Buffon Pro';
      }

      .cls-1, .cls-2, .cls-3 {
        fill: #fff;
      }

      .cls-1, .cls-3 {
        font-size: 24.58px;
      }

      .cls-4 {
        letter-spacing: 0em;
      }

      .cls-3 {
        font-family: BuffonPro-Bold, 'Buffon Pro';
        font-weight: 700;
      }

      .cls-5 {
        letter-spacing: 0em;
      }
    </style>
  </defs>
  <text class="cls-3" transform="translate(34.89 46.75)"><tspan class="cls-5" x="0" y="0">O</tspan><tspan x="18.91" y="0">dy</tspan><tspan class="cls-4" x="48.23" y="0">ss</tspan><tspan x="71.06" y="0">ée </tspan></text>
  <text class="cls-1" transform="translate(26.52 66.8)"><tspan x="0" y="0">CosmiQue</tspan></text>
  <path class="cls-2" d="M51.42,84.61c-19.7,0-35.67-15.97-35.67-35.67S31.72,13.27,51.42,13.27c8.52,0,16.33,2.99,22.46,7.97-6.69-6.13-15.6-9.88-25.39-9.88-20.76,0-37.58,16.83-37.58,37.58s16.83,37.58,37.58,37.58c9.79,0,18.7-3.75,25.39-9.88-6.13,4.98-13.95,7.97-22.46,7.97Z"/>
</svg>