<?xml version="1.0" encoding="UTF-8"?>
<svg id="Calque_9" data-name="Calque 9" xmlns="http://www.w3.org/2000/svg" viewBox="0 0 116 116">
  <defs>
    <style>
      .cls-1 {
        stroke-width: 0px;
      }
    </style>
  </defs>
  <path class="cls-1" d="m65.96,50.04c-4.92-4.92-7.96-11.72-7.96-19.23,0,7.51-3.04,14.31-7.96,19.23-4.92,4.92-11.72,7.96-19.23,7.96,15.02,0,27.19,12.17,27.19,27.19,0-7.51,3.04-14.31,7.96-19.23,4.92-4.92,11.72-7.96,19.23-7.96-7.51,0-14.31-3.04-19.23-7.96Zm-2.73,13.2c-3.23,3.23-5.23,7.71-5.23,12.64,0-9.87-8.01-17.88-17.88-17.88,4.93,0,9.41-2,12.64-5.23s5.24-7.71,5.24-12.65c0,4.94,2,9.41,5.23,12.65,3.24,3.23,7.71,5.23,12.65,5.23-4.94,0-9.41,2-12.65,5.24Z"/>
</svg>